# xmcd CD database file
#
# Track frame offsets:
#	150
#	25571
#	39211
#	58502
#	71425
#	125432
#	139163
#	167556
#	184841
#	200015
#	211044
#	229134
#	262915
#	274720
#	297212
#
# Disc length: 4618 seconds
#
# Revision: 4
# Processed by: cddbd v1.5.2PL0 Copyright (c) Steve Scherf et al.
# Submitted via: CDex 1.51
#
DISCID=d012080f
DTITLE=Oscar Peterson - Blue and Sentimental  [CD 1-3]
DYEAR=2007
DGENRE=Jazz
TTITLE0=Jumping at the Woodside
TTITLE1=I got rhythm
TTITLE2=Topsy
TTITLE3=I've got a crush on you
TTITLE4=The Astaire blues
TTITLE5=I don't stand a ghost of a chance with you
TTITLE6=Easy does it
TTITLE7=Oh lady be good
TTITLE8=Somebody Loves me
TTITLE9=Blue and Sentimental 
TTITLE10=Seven come eleven (live)
TTITLE11=C jam blues (live)
TTITLE12='s Wonderful 
TTITLE13=I want a little girl
TTITLE14=Stompin' at the Savoy
EXTD=YEAR: 2007
EXTT0=
EXTT1=
EXTT2=
EXTT3=
EXTT4=
EXTT5=
EXTT6=
EXTT7=
EXTT8=
EXTT9=
EXTT10=
EXTT11=
EXTT12=
EXTT13=
EXTT14=
PLAYORDER=
